<svg version="1.1" id="Layer_1" x="0px" y="0px" viewBox="0 0 300 300" xmlns="http://www.w3.org/2000/svg">
  <g>
    <path fill="white" d="M265.85,277.52l-2.75-0.25c-10.25-0.99-15.16-4.48-37.78-56.2l-38.35-87.59l-1.17,6.94l34.93,80.65&#10;&#9;&#9;c5.37,12.18,8.55,25.36,9.13,36.31c0.59,11.19-1.23,19.15-12.87,19.89l-5.21,0.25l0.04,0.75h54.08L265.85,277.52z" style="fill: rgb(255, 255, 255);"/>
    <path fill="white" d="M183.3,210.59c-0.53-2.91-1.58-5.93-1.85-8.95c-0.36-3.88-0.21-7.94-1.4-11.57&#10;&#9;&#9;c-2.15-6.57-4.47-13.06-7.19-19.34l-9.94,23.61c2.34,5.08,4.63,10.2,6.99,15.24c1.14,2.44,1.69,5.03,2.36,7.58&#10;&#9;&#9;c1.86,7.08,3.83,14.56,8.38,20.47c3.87,5.02,7.81,10.11,11.74,15.15c1.28,1.64,1.31,3.26,0.35,5.05c-1.7,3.17-0.94,5.37,2.43,6.76&#10;&#9;&#9;c1.53,0.63,2.42,1.68,3.22,3.05c1.53,2.6,0.88,5.61,1.77,8.33c0.55,1.67,1.96,2.65,3.3,2.77c1.02,0.1,2.06-1.53,2.34-2.69&#10;&#9;&#9;c1.37-5.76,0.92-14.12-2.18-19.4C194.98,241.93,186.34,227.28,183.3,210.59z" style="fill: rgb(255, 255, 255);"/>
    <path fill="white" d="M126.52,162.26c4.63,0.83,9.26,1.86,14,2.17c2.67,0.18,4.42,0.7,5.84,1.74l8.62-22.56&#10;&#9;&#9;c-3.84,2.22-8.39,2.95-12.8,2.75c-8.83-0.39-18.98,2.18-28.13,2.73c-7.86,0.47-16.37-0.14-24.29-0.07&#10;&#9;&#9;c-6.16,0.05-12.59,1.24-18.87,1.76c-6.74,0.56-14.15,0.06-19.76-3.88c-3.98-2.79-8.19-5.57-13.15-6.1&#10;&#9;&#9;c-2.77-0.29-4.62,2.1-3.59,4.74c0.42,1.07,1.38,2.01,2.21,2.8c7.21,6.88,18.58,7.75,28.36,8.94c11.5,1.4,23.22,2.43,34.69,2.84&#10;&#9;&#9;C108.59,160.43,117.65,160.67,126.52,162.26z" style="fill: rgb(255, 255, 255);"/>
    <polygon fill="white" points="215.11,212.74 186.27,212.74 187.15,215.64 216.08,215.64 &#9;" style="fill: rgb(255, 255, 255);"/>
    <path fill="white" d="M153.53,212.74l8.15-21.1c0.02-0.06,0,0,0.02-0.06l10.08-23.77c1.54-3.74,2.56-7.86,4.81-11.12&#10;&#9;&#9;c3.87-5.59,5.6-12.24,5.9-18.94c0.06-1.25,0.07-2.51,0.03-3.76c-0.1-3.25-0.4-6.51-0.42-9.79c-0.01-1.65,0.05-3.3,0.25-4.94&#10;&#9;&#9;c0.5-4.23-0.44-8.12-4.02-10.78c-1.91-1.42-3.73-2.84-5.07-4.81c-1.81-2.64-3.19-5.72-5.45-7.86c-2.99-2.83-4.67-6.18-6.05-9.85&#10;&#9;&#9;c-0.13-0.35-0.2-0.58,0.08-0.93c2.83-3.61,0.66-9.06-3.15-10.88c-0.91-0.43-1.87-1.07-2.05-2.19c-0.54-3.39-2.11-4.97-5.55-5.44&#10;&#9;&#9;c-0.4-0.05-0.7-0.14-0.91-0.55c-5.36-10.64-12.61-20.01-20.74-28.94c-2.67-2.93-2.79-6.8-3.91-10.3c-0.18-0.57-0.11-1.22-0.15-1.83&#10;&#9;&#9;c-0.4,0.59-0.87,1.15-1.18,1.78c-0.16,0.33-0.05,0.8-0.05,1.21c0,0.26-0.12,0.69-0.33,0.45c-0.68-0.8-2.17-1.42-1.9-2.43&#10;&#9;&#9;c0.64-2.33-1.08-2.77-2.36-3.66c-0.17-0.12-0.38-0.16-0.58-0.24c0.14,0.15,0.31,0.28,0.42,0.45c0.25,0.42,0.47,0.85,0.7,1.28&#10;&#9;&#9;c-0.14-0.02-0.31-0.01-0.41-0.08c-0.81-0.61-1.61-1.24-2.4-1.88c-0.18-0.14-0.32-0.33-0.48-0.5c-0.04,0.36-0.26,0.93-0.1,1.06&#10;&#9;&#9;c0.72,0.61,0.9,1.59,1.45,2.18c2.25,2.39,3.31,5.49,5.02,8.18c2.45,3.87,4.44,8.06,6.95,11.9c4.64,7.09,8.06,15,11.69,22.63&#10;&#9;&#9;c0.39,0.82,0.54,1.22-0.39,1.76c-1.64,0.95-2.83,2.42-3.98,3.92c-1.29,1.66-1.3,3.89-2.4,5.55c-2.07,3.12-0.94,8.71,2.69,9.68&#10;&#9;&#9;c2.69,0.72,4.03,2.69,6,4.07c3.49,2.44,4.93,5.61,3.7,9.84c-0.23,0.78-0.53,0.97-1.3,0.91c-1.67-0.13-3.29-0.7-5.01-0.46&#10;&#9;&#9;c-8.34,1.16-16.77,2.96-25.21,3.13c-4.29,0.08-8.65-0.42-12.91-0.17c-4.7,0.28-9.38,1.31-14.11,1.49&#10;&#9;&#9;c-5.17,0.19-10.4-0.41-15.51,0.15c-5.28,0.58-10.3,0.3-15.3-1.33c-0.87-0.28-2.36-1.1-2.56-0.53c-0.49,1.35,1.05,1.72,1.99,2.3&#10;&#9;&#9;c0.22,0.14,0.4,0.34,0.6,0.52c-0.24,0.03-0.49,0.11-0.72,0.09c-0.6-0.06-1.2-0.16-1.8-0.24c0.58,0.48,1.1,1.15,1.77,1.4&#10;&#9;&#9;c0.86,0.32,1.9,0.54,2.77,0.36c1.88-0.38,3.4,0.24,4.87,1.27c0.25,0.18,0.47,0.39,0.71,0.59c-0.24,0.16-0.48,0.3-0.7,0.48&#10;&#9;&#9;c-0.47,0.38-1.68,0.6-1.38,0.96c0.53,0.63,1.46,0.93,2.55,0.65c3.54-0.88,6.91-2.67,10.7-2.2c4.38,0.54,9.03,1.17,13.14,1.63&#10;&#9;&#9;c7.23,0.82,15.45-0.52,22.92-0.43c6.79,0.08,14.13,0.66,21.13,1.13c2.98,0.2,6.52,0.15,8.69,2.28&#10;&#9;&#9;c6.21,6.09,12.57,12.56,16.49,20.43c0.59,1.18,0.74,2.9-0.01,3.73l-10.69,28.28c0.01,0.01,0.01,0.02,0.02,0.03l-27.82,68.02&#10;&#9;&#9;c-14.67,35.81-17.16,39.54-27.35,40.78l-1.99,0.25v0.75h59.43v-0.75l-6.47-0.25c-15.91-0.5-11.69-10.69-0.5-39.54l8.53-22.1h16.19&#10;&#9;&#9;l-0.95-2.9H153.53z" style="fill: rgb(255, 255, 255);"/>
  </g>
</svg>